<?xml version="1.0" standalone="no"?>
<!DOCTYPE svg PUBLIC "-//W3C//DTD SVG 20010904//EN"
 "http://www.w3.org/TR/2001/REC-SVG-20010904/DTD/svg10.dtd">
<svg version="1.0" xmlns="http://www.w3.org/2000/svg"
 width="260.000000pt" height="260.000000pt" viewBox="0 0 260.000000 260.000000"
 preserveAspectRatio="xMidYMid meet">
<metadata>
Created by potrace 1.14, written by Peter Selinger 2001-2017
</metadata>
<g transform="translate(0.000000,260.000000) scale(0.100000,-0.100000)"
fill="#000000" stroke="none">
<path d="M1440 2309 c-13 -10 -13 -10 0 -6 12 3 15 -5 15 -38 0 -24 -3 -41 -8
-38 -4 2 -5 8 -2 13 3 5 1 11 -4 15 -10 6 -7 -27 3 -44 4 -5 3 -16 0 -25 -5
-13 -9 -13 -23 6 -14 17 -18 18 -18 5 0 -9 3 -14 7 -12 3 2 7 -6 7 -18 1 -12
-1 -17 -5 -11 -8 13 -62 25 -62 13 0 -4 3 -9 8 -12 4 -2 2 -2 -5 -1 -7 2 -15
-1 -18 -6 -4 -6 -12 -10 -18 -10 -8 0 -7 4 2 9 8 5 16 17 17 25 1 9 -2 14 -7
10 -5 -3 -7 -10 -3 -15 3 -6 -5 -8 -21 -5 -21 4 -24 2 -16 -8 6 -7 7 -17 3
-21 -4 -5 -2 -5 4 -2 15 9 26 -31 12 -40 -6 -3 -8 -2 -5 3 3 6 -4 16 -16 23
-18 11 -20 11 -9 0 6 -7 12 -21 12 -32 0 -12 4 -16 13 -11 6 4 9 4 5 -1 -4 -4
-2 -15 5 -24 9 -12 5 -11 -18 3 -30 19 -30 19 -12 -1 9 -11 14 -23 10 -28 -5
-4 -3 -6 2 -2 6 3 17 1 25 -5 12 -8 12 -9 -2 -4 -10 3 -18 1 -18 -4 0 -5 -8
-7 -17 -4 -10 3 -7 -1 7 -9 14 -9 29 -13 34 -10 5 4 6 1 2 -6 -5 -7 -14 -10
-21 -7 -8 3 -19 -1 -25 -9 -10 -11 -8 -13 7 -10 11 2 26 -1 34 -7 11 -8 10 -9
-5 -4 -13 5 -17 2 -13 -9 4 -8 1 -17 -5 -21 -7 -4 -6 -10 3 -16 10 -7 8 -8 -7
-3 -14 3 -28 -1 -38 -11 -13 -13 -19 -14 -31 -4 -8 7 -15 9 -15 5 0 -4 -7 -2
-15 5 -9 7 -18 10 -22 6 -3 -3 -1 -6 7 -6 9 0 9 -4 3 -12 -6 -7 -9 -20 -8 -29
3 -18 -24 -21 -38 -4 -5 6 -7 4 -4 -5 2 -8 9 -15 15 -15 12 0 17 -10 9 -23 -2
-4 -2 -1 -1 6 3 9 -1 10 -16 2 -23 -12 -26 -21 -7 -18 6 2 11 -2 10 -9 -2 -7
4 -10 12 -7 11 5 13 2 9 -10 -3 -9 -10 -14 -14 -11 -4 2 -6 -9 -4 -26 3 -22 0
-28 -9 -23 -9 6 -9 4 1 -8 10 -13 10 -17 0 -22 -7 -3 1 -3 17 0 l30 5 -30 -16
c-16 -8 -22 -13 -12 -10 11 3 17 -1 17 -11 0 -10 -6 -14 -15 -10 -8 3 -15 1
-15 -3 0 -5 5 -11 12 -13 8 -3 6 -7 -5 -11 -9 -3 -19 -1 -23 5 -5 7 -2 8 6 3
8 -5 11 -4 7 3 -7 11 -32 11 -43 -1 -12 -12 -36 -8 -28 5 4 7 3 8 -4 4 -9 -5
-9 -13 -2 -26 9 -16 7 -18 -10 -15 -11 2 -25 7 -32 11 -7 5 -8 3 -3 -6 4 -7 2
-16 -5 -20 -10 -6 -10 -12 2 -29 8 -11 19 -18 24 -13 4 4 3 0 -4 -9 -9 -12 -9
-18 1 -29 9 -10 9 -11 0 -6 -12 6 -15 0 -12 -20 0 -4 -5 -11 -13 -15 -10 -7
-10 -9 0 -9 6 0 12 -5 12 -11 0 -6 -8 -8 -17 -5 -16 5 -16 5 -2 -6 9 -7 19
-26 23 -42 6 -26 6 -27 -9 -12 -9 9 -18 16 -20 16 -6 0 6 -33 18 -48 7 -9 5
-11 -8 -6 -13 5 -16 4 -11 -4 4 -7 2 -12 -4 -12 -6 0 -9 8 -5 18 4 15 0 19
-17 18 -13 -1 -29 -5 -35 -9 -8 -5 -13 -3 -13 5 0 8 -5 6 -11 -5 -6 -9 -15
-14 -21 -11 -7 4 -8 2 -4 -5 6 -9 11 -9 21 -1 9 8 14 7 18 -3 4 -10 -3 -13
-23 -12 -24 1 -28 -2 -25 -24 1 -14 1 -31 -2 -38 -8 -19 -23 -5 -17 15 5 14 4
14 -4 2 -7 -9 -7 -19 -2 -26 6 -6 6 -15 2 -19 -4 -5 -1 -5 6 -1 11 7 12 0 8
-29 -6 -35 -5 -37 16 -32 21 6 22 5 5 -8 -20 -14 -7 -31 16 -20 6 4 3 -1 -8
-10 -17 -14 -18 -17 -5 -25 9 -6 10 -10 3 -10 -6 0 -15 5 -19 11 -4 8 -9 7
-15 -2 -13 -21 -11 -29 8 -22 11 4 14 3 9 -5 -4 -7 -15 -12 -24 -12 -15 0 -15
-2 -2 -10 9 -6 10 -10 3 -10 -6 0 -15 5 -18 10 -3 6 -11 10 -16 10 -6 0 -7 -5
-3 -12 4 -6 3 -8 -4 -4 -6 3 -9 16 -7 27 3 16 1 18 -9 10 -7 -6 -17 -7 -21 -3
-5 4 -5 1 -1 -5 11 -19 -5 -16 -20 5 -13 16 -14 16 -7 -2 4 -13 3 -17 -5 -13
-7 5 -10 -113 -11 -418 l0 -425 71 0 c58 0 68 2 59 14 -8 10 -5 21 13 49 13
19 22 38 19 40 -2 3 5 10 16 16 13 7 18 18 15 29 -3 9 2 6 11 -8 9 -14 14 -18
12 -9 -3 9 1 16 9 16 7 0 11 -3 9 -7 -2 -4 2 -7 10 -7 10 0 11 5 5 16 -7 13
-3 16 24 15 25 -1 32 2 33 18 2 20 1 20 -13 2 -13 -18 -14 -17 -7 11 4 17 6
38 5 48 0 10 4 15 10 11 8 -5 9 1 5 17 -6 23 -5 23 8 5 13 -18 15 -18 15 -3 0
14 4 16 19 7 14 -7 22 -7 27 2 4 6 3 8 -4 4 -6 -3 -13 -2 -16 3 -4 6 7 8 25 6
23 -3 30 -1 25 10 -3 9 0 12 9 8 8 -3 12 -10 8 -17 -4 -6 1 -5 10 3 9 7 15 17
12 21 -3 5 1 11 7 13 8 3 5 6 -6 6 -12 1 -16 -4 -12 -14 8 -22 -2 -18 -15 6
-6 12 -7 19 -2 16 11 -7 53 28 53 43 0 6 -5 10 -11 10 -5 0 -8 -4 -4 -9 3 -6
-4 -15 -15 -21 -21 -11 -21 -11 -5 13 13 20 13 26 3 30 -9 4 -7 6 4 6 9 1 18
4 21 9 2 4 2 2 1 -5 -2 -6 5 -11 14 -11 9 0 26 -3 37 -7 11 -4 16 -3 10 2 -12
10 -13 39 -1 50 5 4 6 3 3 -3 -4 -6 1 -20 9 -30 9 -10 12 -13 8 -5 -5 11 -2
13 14 9 15 -4 19 -2 15 9 -3 8 -12 12 -20 9 -8 -4 -11 -1 -7 5 3 6 17 9 29 7
16 -4 22 -1 18 9 -3 7 -9 10 -14 7 -5 -3 -6 2 -3 11 5 13 9 13 22 3 14 -12 14
-11 1 10 -13 21 -15 21 -26 5 -7 -9 -13 -12 -13 -6 0 6 7 16 15 23 8 7 12 17
8 23 -3 6 -1 7 6 3 6 -4 9 -12 6 -17 -4 -5 -1 -9 4 -9 15 0 14 12 -6 40 -9 14
-10 19 -3 12 21 -18 40 -15 34 6 -5 13 -4 14 4 3 6 -8 15 -10 23 -5 19 12 40
14 34 4 -3 -5 3 -8 14 -7 16 1 18 5 9 20 -5 10 -7 21 -4 25 3 3 6 0 6 -6 0
-15 27 -15 36 0 5 8 2 9 -9 5 -10 -3 -17 -5 -17 -4 0 1 4 17 9 35 7 24 6 32
-3 32 -6 0 -12 10 -13 23 -1 12 -4 33 -7 47 l-7 25 12 -25 c6 -14 12 -30 13
-37 1 -7 5 -15 9 -19 6 -6 1 39 -8 63 -2 7 3 10 13 7 9 -3 5 2 -10 11 -30 17
-37 28 -13 18 17 -6 17 16 0 30 -6 4 -1 7 10 5 14 -2 20 2 19 14 -2 16 2 15
40 -3 37 -18 39 -18 18 -2 l-23 19 25 -1 c13 0 28 -4 33 -9 5 -5 3 -6 -4 -2
-9 5 -11 2 -6 -9 5 -13 7 -14 14 -3 7 11 9 10 9 -1 0 -8 3 -12 6 -9 3 4 1 16
-6 27 -6 12 -7 21 -1 21 5 0 11 -4 13 -9 2 -5 9 -2 17 6 11 12 10 14 -5 11
-13 -2 -19 4 -20 19 -1 12 3 20 8 17 4 -3 6 -9 4 -13 -3 -4 1 -8 9 -8 10 0 11
5 5 17 -5 10 -6 21 -2 25 4 5 2 5 -5 1 -6 -3 -15 -1 -19 5 -5 8 -3 9 6 4 10
-6 12 2 8 39 -4 36 -2 48 11 56 9 5 11 10 4 10 -23 0 -18 35 8 60 25 24 79 39
79 21 0 -4 -11 -7 -25 -6 -14 2 -23 -1 -20 -5 3 -5 12 -7 20 -3 11 4 14 0 9
-13 -6 -17 -5 -17 10 1 10 11 15 15 12 8 -4 -6 -2 -15 4 -18 6 -4 10 -3 9 2
-4 22 2 34 14 27 6 -4 9 -4 5 1 -4 4 -2 15 4 23 15 17 20 44 7 36 -5 -3 -6
-11 -2 -17 4 -7 0 -6 -10 2 -18 15 -23 26 -7 16 6 -4 10 5 10 20 0 15 4 24 10
20 6 -4 8 -11 5 -16 -3 -5 1 -6 11 -2 15 5 15 7 0 15 -9 5 -14 14 -10 20 4 6
-2 8 -17 3 -13 -3 -19 -3 -13 2 6 4 11 24 11 43 0 19 -5 38 -11 42 -7 5 -6 8
4 8 13 0 13 1 0 10 -11 7 -12 10 -2 10 9 0 11 7 7 23 -4 16 -3 18 4 7 5 -8 8
-30 6 -47 -1 -18 1 -30 6 -28 4 3 6 14 4 25 -2 11 0 20 5 20 5 0 6 7 3 17 -4
11 -3 14 5 9 19 -11 14 5 -5 20 -15 11 -13 12 15 1 27 -9 34 -9 41 2 7 10 11
9 22 -7 11 -15 17 -17 25 -8 12 13 -8 40 -22 28 -4 -4 -4 -1 0 6 4 7 11 10 16
7 5 -3 11 -1 15 5 3 5 0 10 -7 10 -8 0 -6 5 5 11 9 5 17 15 17 20 0 6 -4 7
-10 4 -16 -10 -11 1 7 16 14 12 16 12 8 0 -5 -10 -4 -12 4 -7 14 9 5 26 -14
26 -7 0 -16 8 -20 18 -5 14 -4 15 6 5 22 -22 33 -14 13 8 -19 22 -19 22 5 9
19 -10 22 -10 15 2 -5 7 -7 21 -6 31 3 15 -7 21 -29 19 -3 -1 -6 6 -6 13 0 11
4 12 13 4 10 -8 12 -6 11 10 -1 12 -5 21 -10 21 -4 0 -5 5 -1 11 5 8 9 8 14
-1 5 -8 9 -4 13 10 5 19 8 20 28 10 20 -11 21 -10 15 6 -5 17 -5 17 6 3 14
-17 42 -14 31 4 -3 6 4 3 18 -6 13 -9 26 -17 30 -17 4 0 7 63 7 141 1 114 -1
139 -12 130 -7 -6 -16 -8 -19 -4 -4 3 -7 1 -7 -5 0 -7 -4 -12 -9 -12 -6 0 -8
9 -6 20 4 22 -10 36 -20 20 -4 -6 -11 -8 -16 -4 -5 3 -16 1 -24 -6 -11 -9 -16
-6 -26 12 -16 29 -24 71 -9 48 7 -11 10 -12 10 -2 0 16 -25 43 -34 37 -3 -3
-2 0 4 7 6 8 5 17 -3 27 -9 11 -9 13 0 8 6 -4 14 -3 17 2 8 13 -416 13 -434 0z
m45 -9 c3 -5 1 -10 -4 -10 -6 0 -11 5 -11 10 0 6 2 10 4 10 3 0 8 -4 11 -10z
m478 -135 c-3 -9 -8 -14 -10 -11 -3 3 -2 9 2 15 9 16 15 13 8 -4z m-83 -365
c0 -5 -4 -10 -10 -10 -5 0 -10 5 -10 10 0 6 5 10 10 10 6 0 10 -4 10 -10z
m-695 -99 c-9 -8 -36 -10 -30 -2 2 4 11 8 20 8 8 0 13 -3 10 -6z m600 -69 c-3
-3 -11 0 -18 7 -9 10 -8 11 6 5 10 -3 15 -9 12 -12z m-682 -25 c3 -7 -3 -13
-14 -13 -13 0 -15 3 -7 13 6 7 12 13 13 13 2 0 5 -6 8 -13z m-73 -47 c0 -5 -7
-10 -16 -10 -8 0 -12 5 -9 10 3 6 10 10 16 10 5 0 9 -4 9 -10z m10 -116 c0 -8
-19 -13 -24 -6 -3 5 1 9 9 9 8 0 15 -2 15 -3z m-10 -34 c0 -5 -2 -10 -4 -10
-3 0 -8 5 -11 10 -3 6 -1 10 4 10 6 0 11 -4 11 -10z m674 -42 c-5 -8 -2 -9 11
-4 15 5 16 4 5 -9 -10 -12 -15 -13 -21 -3 -7 12 -3 28 7 28 3 0 2 -5 -2 -12z
m-93 -11 c-6 -8 -8 -16 -5 -19 3 -3 1 -9 -4 -12 -6 -3 -9 0 -8 6 2 16 15 38
23 38 3 0 0 -6 -6 -13z m-654 -33 c0 -10 -10 -11 -35 -5 -2 1 -1 5 2 9 8 13
33 10 33 -4z m628 -64 c3 -5 1 -10 -4 -10 -6 0 -11 5 -11 10 0 6 2 10 4 10 3
0 8 -4 11 -10z m-701 -19 c3 -5 -1 -11 -9 -14 -9 -4 -12 -1 -8 9 6 16 10 17
17 5z m-3 -45 c-9 -11 -9 -15 1 -18 8 -3 7 -6 -4 -10 -11 -5 -15 -2 -13 10 2
9 4 20 4 25 1 4 6 7 12 7 8 0 8 -4 0 -14z m-95 -154 c0 -13 -7 -18 -21 -16
-11 1 -24 3 -28 3 -5 1 -5 6 -1 12 5 8 8 8 14 0 5 -9 10 -8 20 4 16 19 16 19
16 -3z m439 -402 c3 -5 2 -10 -4 -10 -5 0 -13 5 -16 10 -3 6 -2 10 4 10 5 0
13 -4 16 -10z m-336 -304 c-11 -5 -18 -15 -15 -22 5 -13 -11 -30 -20 -21 -8 8
18 57 27 51 5 -3 9 3 9 13 0 15 2 16 10 3 7 -11 4 -17 -11 -24z"/>
<path d="M1874 2285 c3 -23 12 -26 13 -5 1 11 -2 20 -7 20 -4 0 -7 -7 -6 -15z"/>
<path d="M1426 2207 c3 -10 9 -15 12 -12 3 3 0 11 -7 18 -10 9 -11 8 -5 -6z"/>
<path d="M1893 2189 c11 -17 14 -16 20 7 1 4 -6 8 -15 10 -14 2 -15 -1 -5 -17z"/>
<path d="M1987 2177 c-3 -8 1 -14 8 -14 7 0 11 6 8 14 -3 7 -6 13 -8 13 -2 0
-5 -6 -8 -13z"/>
<path d="M1276 1931 c-4 -5 -2 -12 3 -15 5 -4 12 -2 15 3 4 5 2 12 -3 15 -5 4
-12 2 -15 -3z"/>
<path d="M1237 1918 c-7 -20 -7 -28 0 -30 3 -2 8 7 9 20 4 24 -1 30 -9 10z"/>
<path d="M1196 1907 c3 -10 9 -15 12 -12 3 3 0 11 -7 18 -10 9 -11 8 -5 -6z"/>
<path d="M1893 1874 c-6 -13 -7 -24 -2 -24 5 0 9 5 9 11 0 5 5 7 12 3 6 -4 8
-3 5 3 -4 7 11 10 43 8 42 -2 48 0 39 11 -8 10 -15 11 -24 4 -11 -9 -45 -7
-63 4 -4 2 -12 -7 -19 -20z"/>
<path d="M1147 1884 c-7 -8 3 -34 13 -34 9 0 8 26 -1 35 -3 3 -8 2 -12 -1z"/>
<path d="M1882 1674 c-7 -8 -8 -14 -3 -14 10 0 25 19 20 25 -2 1 -10 -3 -17
-11z"/>
<path d="M1865 1640 c-3 -5 -2 -10 4 -10 5 0 13 5 16 10 3 6 2 10 -4 10 -5 0
-13 -4 -16 -10z"/>
<path d="M1016 1621 c-3 -5 2 -15 12 -22 15 -12 16 -12 5 2 -7 9 -10 19 -6 22
3 4 4 7 0 7 -3 0 -8 -4 -11 -9z"/>
<path d="M1790 1589 l-25 -20 25 12 c14 7 29 12 33 11 5 -1 6 2 2 8 -8 13 -5
13 -35 -11z"/>
<path d="M999 1515 c-1 -3 -2 -8 -3 -12 -1 -5 -5 -15 -10 -23 -7 -12 -6 -13 4
-3 13 12 23 43 14 43 -2 0 -5 -2 -5 -5z"/>
<path d="M1736 1482 c-3 -5 1 -9 9 -9 8 0 12 4 9 9 -3 4 -7 8 -9 8 -2 0 -6 -4
-9 -8z"/>
<path d="M875 1350 c3 -5 8 -10 11 -10 2 0 4 5 4 10 0 6 -5 10 -11 10 -5 0 -7
-4 -4 -10z"/>
<path d="M1612 1310 c-21 -17 -21 -19 -3 -17 11 0 17 5 14 11 -4 5 1 7 10 3
11 -4 14 -2 10 9 -6 17 -3 17 -31 -6z"/>
<path d="M1606 1157 c3 -10 9 -15 12 -12 3 3 0 11 -7 18 -10 9 -11 8 -5 -6z"/>
<path d="M847 1119 c7 -7 15 -10 18 -7 3 3 -2 9 -12 12 -14 6 -15 5 -6 -5z"/>
<path d="M814 1079 c-3 -6 -1 -16 4 -21 8 -8 11 -5 9 11 -1 24 -3 25 -13 10z"/>
<path d="M1475 1040 c-3 -5 -1 -10 4 -10 6 0 11 5 11 10 0 6 -2 10 -4 10 -3 0
-8 -4 -11 -10z"/>
<path d="M1456 1005 c4 -8 8 -15 10 -15 2 0 4 7 4 15 0 8 -4 15 -10 15 -5 0
-7 -7 -4 -15z"/>
<path d="M1361 771 c-17 -13 -19 -18 -7 -18 9 0 16 4 16 8 0 4 8 9 18 11 9 2
13 6 7 10 -6 4 -21 -1 -34 -11z"/>
<path d="M1413 755 c0 -8 4 -12 9 -9 4 3 8 9 8 15 0 5 -4 9 -8 9 -5 0 -9 -7
-9 -15z"/>
<path d="M1104 478 c-3 -4 5 -5 17 -3 30 6 36 14 9 12 -12 -1 -24 -5 -26 -9z"/>
<path d="M863 251 c-10 -15 -9 -20 2 -25 10 -3 12 0 8 11 -4 11 -2 14 5 9 8
-5 10 -2 6 8 -8 20 -7 20 -21 -3z"/>
</g>
</svg>
